<svg width="100%" viewBox="0 0 680 480" role="img" xmlns="http://www.w3.org/2000/svg">
  <title>CAB-02 fasteners cabinet</title>
  <style>
    .tag { font-family: sans-serif; font-size: 11px; fill: #a89880; }
  </style>

  <rect x="0" y="0" width="680" height="480" fill="#f0e8dc"/>
  <ellipse cx="340" cy="455" rx="200" ry="12" fill="#dccab4" opacity="0.6"/>

  <rect x="160" y="60" width="360" height="380" rx="6" fill="#b8926a"/>
  <line x1="160" y1="115" x2="520" y2="115" stroke="#a07848" stroke-width="1" opacity="0.4"/>
  <line x1="160" y1="210" x2="520" y2="210" stroke="#a07848" stroke-width="1" opacity="0.4"/>
  <line x1="160" y1="305" x2="520" y2="305" stroke="#a07848" stroke-width="1" opacity="0.4"/>
  <line x1="160" y1="390" x2="520" y2="390" stroke="#a07848" stroke-width="1" opacity="0.4"/>

  <rect x="175" y="75" width="330" height="352" rx="3" fill="#e4d0b4"/>

  <rect x="175" y="193" width="330" height="10" rx="2" fill="#b8926a"/>
  <rect x="175" y="288" width="330" height="10" rx="2" fill="#b8926a"/>

  <rect x="192" y="88" width="55" height="95" rx="3" fill="#c8b090"/>
  <rect x="196" y="93" width="47" height="26" rx="2" fill="#d8c0a0"/>
  <circle cx="219" cy="106" r="4" fill="#a88060"/>
  <rect x="196" y="124" width="47" height="26" rx="2" fill="#d8c0a0"/>
  <circle cx="219" cy="137" r="4" fill="#a88060"/>
  <rect x="196" y="155" width="47" height="22" rx="2" fill="#d8c0a0"/>
  <circle cx="219" cy="166" r="4" fill="#a88060"/>
  <text x="219" y="109" text-anchor="middle" class="tag">M4</text>
  <text x="219" y="140" text-anchor="middle" class="tag">M6</text>
  <text x="219" y="169" text-anchor="middle" class="tag">M8</text>

  <rect x="257" y="88" width="55" height="95" rx="3" fill="#c8b090"/>
  <rect x="261" y="93" width="47" height="26" rx="2" fill="#d8c0a0"/>
  <circle cx="284" cy="106" r="4" fill="#a88060"/>
  <rect x="261" y="124" width="47" height="26" rx="2" fill="#d8c0a0"/>
  <circle cx="284" cy="137" r="4" fill="#a88060"/>
  <rect x="261" y="155" width="47" height="22" rx="2" fill="#d8c0a0"/>
  <circle cx="284" cy="166" r="4" fill="#a88060"/>
  <text x="284" y="109" text-anchor="middle" class="tag">M10</text>
  <text x="284" y="140" text-anchor="middle" class="tag">M12</text>
  <text x="284" y="169" text-anchor="middle" class="tag">NUT</text>

  <rect x="325" y="100" width="60" height="75" rx="4" fill="#d0b890"/>
  <rect x="330" y="105" width="50" height="15" rx="2" fill="#b89870"/>
  <text x="355" y="117" text-anchor="middle" class="tag">WASHERS</text>
  <circle cx="345" cy="140" r="9" fill="#c0a880" stroke="#a08860" stroke-width="1.5"/>
  <circle cx="345" cy="140" r="4" fill="#d0b890"/>
  <circle cx="362" cy="148" r="9" fill="#c0a880" stroke="#a08860" stroke-width="1.5"/>
  <circle cx="362" cy="148" r="4" fill="#d0b890"/>
  <circle cx="356" cy="132" r="9" fill="#c0a880" stroke="#a08860" stroke-width="1.5"/>
  <circle cx="356" cy="132" r="4" fill="#d0b890"/>

  <rect x="398" y="100" width="100" height="75" rx="4" fill="#d0b890"/>
  <rect x="403" y="105" width="90" height="15" rx="2" fill="#e87a6a"/>
  <text x="448" y="117" text-anchor="middle" style="font-family:sans-serif;font-size:11px;fill:white;">LOW STOCK</text>
  <rect x="415" y="128" width="8" height="38" rx="1" fill="#909898"/>
  <rect x="410" y="125" width="18" height="8" rx="1" fill="#787878"/>
  <rect x="435" y="128" width="8" height="38" rx="1" fill="#909898"/>
  <rect x="430" y="125" width="18" height="8" rx="1" fill="#787878"/>
  <rect x="455" y="128" width="8" height="38" rx="1" fill="#909898"/>
  <rect x="450" y="125" width="18" height="8" rx="1" fill="#787878"/>
  <rect x="475" y="128" width="8" height="38" rx="1" fill="#909898"/>
  <rect x="470" y="125" width="18" height="8" rx="1" fill="#787878"/>

  <rect x="192" y="220" width="45" height="58" rx="5" fill="#e8f0d8"/>
  <rect x="192" y="215" width="45" height="12" rx="3" fill="#b0c890"/>
  <text x="214" y="226" text-anchor="middle" class="tag" fill="#607040">6g</text>
  <line x1="205" y1="238" x2="212" y2="268" stroke="#8090a0" stroke-width="1.5"/>
  <line x1="214" y1="235" x2="214" y2="268" stroke="#8090a0" stroke-width="1.5"/>
  <line x1="223" y1="238" x2="216" y2="268" stroke="#8090a0" stroke-width="1.5"/>

  <rect x="247" y="220" width="45" height="58" rx="5" fill="#e8f0d8"/>
  <rect x="247" y="215" width="45" height="12" rx="3" fill="#b0c890"/>
  <text x="269" y="226" text-anchor="middle" class="tag" fill="#607040">8g</text>
  <line x1="260" y1="238" x2="267" y2="268" stroke="#8090a0" stroke-width="1.5"/>
  <line x1="269" y1="235" x2="269" y2="268" stroke="#8090a0" stroke-width="1.5"/>
  <line x1="278" y1="238" x2="271" y2="268" stroke="#8090a0" stroke-width="1.5"/>

  <rect x="302" y="220" width="45" height="58" rx="5" fill="#e8f0d8"/>
  <rect x="302" y="215" width="45" height="12" rx="3" fill="#b0c890"/>
  <text x="324" y="226" text-anchor="middle" class="tag" fill="#607040">10g</text>
  <line x1="315" y1="238" x2="322" y2="268" stroke="#8090a0" stroke-width="1.5"/>
  <line x1="324" y1="235" x2="324" y2="268" stroke="#8090a0" stroke-width="1.5"/>
  <line x1="333" y1="238" x2="326" y2="268" stroke="#8090a0" stroke-width="1.5"/>

  <rect x="360" y="218" width="65" height="60" rx="3" fill="#f0e0b0"/>
  <rect x="368" y="225" width="50" height="18" rx="2" fill="#e0c880"/>
  <text x="393" y="238" text-anchor="middle" class="tag" fill="#806030">RIVETS</text>
  <circle cx="375" cy="255" r="4" fill="#b09060"/>
  <circle cx="390" cy="255" r="4" fill="#b09060"/>
  <circle cx="405" cy="255" r="4" fill="#b09060"/>
  <circle cx="375" cy="268" r="4" fill="#b09060"/>
  <circle cx="390" cy="268" r="4" fill="#b09060"/>

  <rect x="438" y="220" width="62" height="58" rx="4" fill="#d8c8e8"/>
  <rect x="444" y="227" width="50" height="14" rx="2" fill="#c0a8d8"/>
  <text x="469" y="238" text-anchor="middle" class="tag" fill="#8060a0">TIES</text>
  <rect x="448" y="247" width="6" height="24" rx="1" fill="#a080c0"/>
  <rect x="457" y="247" width="6" height="24" rx="1" fill="#a080c0"/>
  <rect x="466" y="247" width="6" height="24" rx="1" fill="#a080c0"/>
  <rect x="475" y="247" width="6" height="24" rx="1" fill="#a080c0"/>
  <rect x="484" y="247" width="6" height="24" rx="1" fill="#a080c0"/>

  <rect x="192" y="315" width="85" height="58" rx="4" fill="#e8d8b8"/>
  <rect x="200" y="322" width="70" height="18" rx="2" fill="#d8c098"/>
  <text x="235" y="335" text-anchor="middle" class="tag" fill="#806040">ANCHORS</text>
  <rect x="210" y="345" width="12" height="22" rx="2" fill="#909898"/>
  <rect x="228" y="345" width="12" height="22" rx="2" fill="#909898"/>
  <rect x="246" y="345" width="12" height="22" rx="2" fill="#909898"/>

  <rect x="290" y="318" width="50" height="52" rx="5" fill="#f0e8d0"/>
  <rect x="290" y="313" width="50" height="12" rx="3" fill="#d0b880"/>
  <text x="315" y="324" text-anchor="middle" class="tag" fill="#806030">CLIPS</text>
  <path d="M305 338 Q315 330 325 338 Q315 346 305 338" fill="none" stroke="#a08040" stroke-width="2"/>
  <path d="M305 350 Q315 342 325 350 Q315 358 305 350" fill="none" stroke="#a08040" stroke-width="2"/>

  <rect x="354" y="312" width="80" height="62" rx="4" fill="#e0d0b0"/>
  <rect x="362" y="319" width="64" height="18" rx="2" fill="#c8b080"/>
  <text x="394" y="332" text-anchor="middle" class="tag" fill="#806040">NAILS</text>
  <line x1="368" y1="345" x2="380" y2="368" stroke="#909898" stroke-width="1.5"/>
  <line x1="378" y1="342" x2="385" y2="368" stroke="#909898" stroke-width="1.5"/>
  <line x1="388" y1="343" x2="390" y2="368" stroke="#909898" stroke-width="1.5"/>
  <line x1="398" y1="342" x2="395" y2="368" stroke="#909898" stroke-width="1.5"/>
  <line x1="408" y1="345" x2="400" y2="368" stroke="#909898" stroke-width="1.5"/>

  <rect x="448" y="315" width="55" height="60" rx="4" fill="#c8d8e8"/>
  <rect x="455" y="322" width="40" height="20" rx="3" fill="#a8c0d8"/>
  <rect x="448" y="348" width="30" height="22" rx="3" fill="#b0c8e0"/>
  <rect x="462" y="360" width="12" height="18" rx="2" fill="#90a8c0"/>

  <rect x="160" y="60" width="360" height="380" rx="6" fill="none" stroke="#906838" stroke-width="3"/>

  <rect x="272" y="38" width="136" height="28" rx="4" fill="#E8A87C"/>
  <text x="340" y="57" text-anchor="middle" style="font-family:sans-serif;font-size:13px;fill:white;font-weight:500">CAB-02 · fasteners</text>

  <line x1="100" y1="445" x2="580" y2="445" stroke="#ccc0a8" stroke-width="1.5"/>
</svg>
